# xmcd
#
# Track frame offsets: 
#        150
#        16087
#        32690
#        46635
#        66520
#        77095
#        93600
#        113592
#        135275
#        151642
#        165975
#
# Disc length: 2387 seconds
#
# Revision: 0
# Processed by: cddbd v1.5.2PL0 Copyright (c) Steve Scherf et al.
# Submitted via: ExactAudioCopy v0.95b4
#
DISCID=7109510b
DTITLE=abraham - Blue For the Most
DYEAR=1900
DGENRE=Indie
TTITLE0=Magpie
TTITLE1=Stay Here
TTITLE2=What Gives With You
TTITLE3=City For Us
TTITLE4=Start The Song Backwards
TTITLE5=Blue For The Most
TTITLE6=For All The Times
TTITLE7=Heather
TTITLE8=Freedom's When
TTITLE9=On a Plane
TTITLE10=Ever So Slowly
EXTD=
EXTT0=
EXTT1=
EXTT2=
EXTT3=
EXTT4=
EXTT5=
EXTT6=
EXTT7=
EXTT8=
EXTT9=
EXTT10=
PLAYORDER=
